<svg xmlns="http://www.w3.org/2000/svg" width="585.827" height="585.827" viewBox="0 0 155 155"><path d="M100.205 136.927c0-.364.06-.513.133-.331s.073.48 0 .661-.133.033-.133-.331zm42.688-18.785c.263-.291.538-.529.611-.529s-.083.238-.347.529-.538.529-.611.529.083-.238.347-.529zm-41.427-.463l-.641-.728.728.641c.68.6.849.814.641.814-.047 0-.375-.327-.728-.728zM.522 117.281l-.504-.595.595.504c.559.474.716.687.504.687-.05 0-.318-.268-.595-.595zm146.207-2.712c.342-.364.681-.661.754-.661s-.147.298-.489.661-.681.661-.754.661.147-.298.489-.661zm-48.841-.198l-.504-.595.595.504c.559.474.716.687.504.687-.05 0-.318-.268-.595-.595zm-5.019-.794l-.777-.86.86.777c.473.427.86.814.86.86 0 .204-.218.024-.943-.777zm58.49-3.373c.263-.291.538-.529.611-.529s-.083.238-.347.529-.538.529-.611.529.083-.238.347-.529zm-59.277-1.389l-1.313-1.389 1.389 1.313c1.291 1.22 1.51 1.465 1.313 1.465-.042 0-.667-.625-1.389-1.389zm-81.614-11.84V84.01h12.898 12.898v12.965 12.965H23.368 10.469zM41.69 84.01V58.081h12.965 12.965V84.01v25.929H54.655 41.69zm45.286 21.431c0-.364.06-.513.133-.331s.073.48 0 .661-.133.033-.133-.331zm2.91-.529c0-.364.06-.513.133-.331s.073.48 0 .661-.133.033-.133-.331zm-2.91-1.588c0-.364.06-.513.133-.331s.073.48 0 .661-.133.033-.133-.331zm66.476-2.447l-.504-.595.595.504c.327.277.595.545.595.595 0 .212-.213.055-.687-.504zM89.05 98.959c.342-.364.681-.661.754-.661s-.147.298-.489.661-.681.661-.754.661.147-.298.489-.661zm59.482.216c.191-.076.419-.067.507.021s-.068.15-.347.139c-.308-.013-.371-.075-.16-.16zm-6.879-.794c.191-.076.419-.067.507.021s-.068.15-.347.139c-.308-.013-.371-.075-.16-.16zm-7.144-.794c.191-.076.419-.067.507.021s-.068.15-.347.139c-.308-.013-.371-.075-.16-.16zm-41.01-1.058c.191-.076.419-.067.507.021s-.068.15-.347.139c-.308-.013-.371-.075-.16-.16zm1.708-.267c.257-.067.615-.063.794.01s-.031.127-.468.122-.583-.065-.326-.132zm2.641-.264c.255-.067.671-.067.926 0s.046.121-.463.121-.718-.054-.463-.121zm3.324-.263c.191-.076.419-.067.507.021s-.068.15-.347.139c-.308-.013-.371-.075-.16-.16zm4.498-.529c.191-.076.419-.067.507.021s-.068.15-.347.139c-.308-.013-.371-.075-.16-.16zm22.39-16.554l-.777-.86.86.777c.473.427.86.814.86.86 0 .204-.218.024-.943-.777zm-4.663-2.231c.191-.076.419-.067.507.021s-.068.15-.347.139c-.308-.013-.371-.075-.16-.16zM67.738 43.264l.079-4.696v9.393c-.043 2.583-.079.47-.079-4.696zm9.604-11.575h14.42c3.965.041.721.075-7.21.075s-11.175-.034-7.21-.075z" fill="#79cded"/><path d="M105.719 136.342c0-.176.777-4.222 1.726-8.991l1.561-9.327c-.208-.831-.154-.775-7.483-7.556l-6.149-5.689.873-.196c.48-.108 4.469-.615 8.865-1.127s8.289-1.044 8.651-1.182.837-.524 1.053-.858c.382-.588 2.34-4.876 5.714-12.513.9-2.037 1.727-3.799 1.838-3.915s1.911 3.614 3.999 8.289c3.166 7.084 3.919 8.562 4.521 8.873.424.219 4.207.763 9.141 1.314l9.079 1.085.661.145-.95.835c-4.327 3.803-12.642 11.907-12.78 12.458-.098.39.544 4.352 1.553 9.583.946 4.905 1.668 8.97 1.605 9.034s-3.664-1.923-8.001-4.413c-5.429-3.118-8.133-4.528-8.679-4.526-.945.003-.36-.302-9.317 4.852l-7.342 4.143c-.078 0-.142-.144-.142-.32z" fill="#f5cb2c"/><path d="M73.111 73.545l.068-36.366h13.095 13.095v29.342 29.342l-1.918.176c-2.87.264-4.975.666-5.876 1.123-1.501.761-2.934 2.129-3.723 3.553-.7 1.263-.786 1.668-.786 3.678 0 1.992.096 2.453.818 3.909l.818 1.651-7.83-.021-7.83-.021zm-36.878 32.029c.001-1.601.044-2.221.097-1.379a26.65 26.65 0 0 1-.001 2.91c-.053.759-.096.07-.096-1.531zm-.02-6.747c0-.8.05-1.128.11-.728s.061 1.055 0 1.455-.11.073-.11-.728zm0-2.91c0-.8.05-1.128.11-.728s.061 1.055 0 1.455-.11.073-.11-.728zm.03-6.615l.088-2.315v4.63c-.048 1.273-.088.232-.088-2.315zm5.259-30.03c.002-.728.053-.994.114-.592s.059.997-.004 1.323-.113-.004-.111-.731z" fill="#39a4db"/><path d="M143.555 117.512c0-.055.208-.263.463-.463.42-.329.429-.32.1.1-.346.441-.563.581-.563.363zm-43.161-.892c-.329-.42-.32-.429.1-.1.441.346.581.563.363.563-.055 0-.263-.208-.463-.463zm-5.936-1.455l-.777-.86.86.777c.802.724.982.943.777.943-.046 0-.432-.387-.86-.86zm2.496-1.72c-.329-.42-.32-.429.1-.1.441.346.581.563.363.563-.055 0-.263-.208-.463-.463zm-87.723-.529h14.552c3.955.041.643.075-7.361.075l-7.191-.075zm34.395 0h11.906c3.228.042.511.076-6.037.076l-5.869-.077zm-2.074-27.715l.071-12.349v24.871c-.039 6.792-.071 1.157-.071-12.522zm26.132-1.122l-.065-25.993-13.163-.071-13.163-.071 13.171-.064c10.341-.05 13.198.007 13.297.267.069.182.095 11.939.057 26.128l-.07 25.797zm5.292-10.718l-.065-36.446 13.295.064 13.295.064-13.162.071-13.162.071-.068 36.312-.068 36.312zM5.253 95.784c.002-.728.053-.994.114-.592s.059.997-.004 1.323-.113-.004-.111-.731zm99.316-1.704c-.07-.664-.102-5.493-.07-10.732l.11-37.368.052-27.843 13.097-.071 13.097-.071v31.382l.166 32.676.166 1.294-1.012-1.941c-1.253-2.402-3.064-4.111-4.95-4.671-1.556-.462-3.605-.514-5.001-.126-1.36.378-3.304 1.779-4.208 3.034-.42.582-2.198 4.153-3.952 7.935l-3.378 7.065c-.104.104-1.044.291-2.088.416l-1.899.227zM5.273 83.216c0-1.382.045-1.948.099-1.257s.055 1.822 0 2.514-.099.126-.099-1.257zm11.462.596h12.965c3.612.042.733.076-6.398.076s-10.086-.034-6.567-.076z" fill="#2a77bb"/><path d="M104.281 141.907c-2.176-.481-3.835-2.568-3.848-4.842-.003-.579.722-4.738 1.612-9.243l1.617-8.191-1.828-1.737-6.416-6.092c-2.673-2.536-4.739-4.715-4.949-5.217-.431-1.031-.469-2.939-.079-3.971.344-.911 1.458-2.119 2.412-2.618.39-.204 2.771-.605 5.292-.892l8.551-.969c2.183-.246 4.099-.578 4.258-.738s1.803-3.634 3.654-7.721l3.868-8.258c1.687-2.774 6.628-2.61 8.294.276.577.999 4.286 9.079 6.468 14.086l.805 1.848 8.42.953c4.631.524 8.845 1.094 9.365 1.266.986.326 2.325 1.56 2.897 2.671.468.908.416 3.173-.094 4.161-.527 1.019-1.134 1.644-6.128 6.305l-5.524 5.178-1.557 1.475 1.621 8.361 1.62 8.976c-.007 3.014-2.951 5.598-5.825 5.112-.584-.099-4.227-1.995-8.631-4.493l-7.621-4.322-.801.405c-.441.223-3.897 2.164-7.68 4.313-4.024 2.286-7.264 3.958-7.805 4.028-.509.066-1.395.017-1.967-.109zm8.922-9.388c8.958-5.154 8.372-4.849 9.317-4.852.547-.002 3.25 1.408 8.679 4.526 4.337 2.491 7.937 4.477 8.001 4.413s-.659-4.129-1.605-9.034c-1.009-5.231-1.651-9.193-1.553-9.583.138-.551 8.452-8.655 12.78-12.458l.95-.835-.661-.145c-.364-.08-4.45-.568-9.079-1.085-4.935-.551-8.717-1.095-9.141-1.314-.603-.312-1.356-1.789-4.521-8.873-2.089-4.675-3.889-8.405-3.999-8.289s-.938 1.877-1.838 3.915l-5.714 12.513c-.217.334-.691.72-1.053.858s-4.256.67-8.651 1.182l-8.865 1.127-.873.196 6.149 5.689c7.329 6.78 7.274 6.725 7.483 7.556.096.382-.556 4.277-1.561 9.327-1.747 8.779-1.838 9.311-1.584 9.311.078 0 3.382-1.864 7.342-4.143zM1.606 117.891c-1.691-.692-2.16-3.008-.839-4.144l.736-.633 14.603-.011 45.24-.14 30.637-.129 2.635 2.447c1.449 1.346 2.635 2.54 2.635 2.654 0 .277-94.97.234-95.647-.043zm3.681-8.314c-.076-.199-.089-6.803-.028-14.676.122-15.65.088-15.329 1.669-15.93.393-.149 6.555-.253 15.067-.253h14.403V66.799c0-12.929.012-13.039 1.448-13.694.511-.233 4.554-.316 15.366-.316h14.672v-9.678-9.678l.773-.773.773-.773H84.4h14.969V23.54c0-7.06.064-8.471.414-9.149.81-1.567.68-1.556 18.032-1.527l16.476.21c.362.101.928.583 1.257 1.071l.598.888-.002 39.847-.001 39.847-2.578-5.689-2.578-5.689-.074-32.676-.074-32.676-13.089.071-13.089.071-.053 27.843-.063 38.602-.01 10.759-1.458.165-2.583.317-1.124.152V66.445 36.914H86.14 72.911v36.512 36.513h-2.512-2.512l-.067-25.995-.067-25.995-13.163-.069-13.163-.069v26.064 26.064h-2.511-2.511l-.069-13.031-.069-13.031-12.898-.069-12.898-.069V96.84v13.099H7.947c-1.89 0-2.557-.091-2.661-.362z" fill="#35413e"/></svg>